<mxfile host="app.diagrams.net" modified="2024-03-08T10:36:43.467Z" agent="Mozilla/5.0 (Windows NT 10.0; Win64; x64; rv:123.0) Gecko/20100101 Firefox/123.0" etag="_yQdckh81JrUlagWtEdy" version="24.0.2" type="github">
  <diagram id="C5RBs43oDa-KdzZeNtuy" name="Page-1">
    <mxGraphModel dx="2795" dy="1153" grid="0" gridSize="10" guides="1" tooltips="1" connect="1" arrows="1" fold="1" page="0" pageScale="1" pageWidth="827" pageHeight="1169" math="0" shadow="0">
      <root>
        <mxCell id="WIyWlLk6GJQsqaUBKTNV-0" />
        <mxCell id="WIyWlLk6GJQsqaUBKTNV-1" parent="WIyWlLk6GJQsqaUBKTNV-0" />
        <mxCell id="Z0-859JoU0TvKjbYaFMb-15" value="&lt;font size=&quot;1&quot;&gt;&lt;b style=&quot;font-size: 20px;&quot;&gt;Tasklet ValidateJobParameters&lt;/b&gt;&lt;/font&gt;" style="text;html=1;align=center;verticalAlign=middle;whiteSpace=wrap;rounded=1;" parent="WIyWlLk6GJQsqaUBKTNV-1" vertex="1">
          <mxGeometry x="4.5" y="-170" width="303" height="46" as="geometry" />
        </mxCell>
        <mxCell id="Z0-859JoU0TvKjbYaFMb-19" value="&lt;font style=&quot;font-size: 16px;&quot;&gt;JobExecutionListener.afterJob:&amp;nbsp;&lt;/font&gt; &lt;div&gt;&lt;br&gt;&lt;/div&gt;&lt;font style=&quot;font-size: 14px;&quot;&gt;ajoute des lignes dans la table &lt;b&gt;formulaire&lt;/b&gt;, &lt;br&gt;envoie des mails&lt;/font&gt;&lt;div&gt;&lt;br&gt;&lt;/div&gt;" style="rounded=1;whiteSpace=wrap;html=1;fontSize=12;glass=0;strokeWidth=1;shadow=0;fillColor=#fff2cc;strokeColor=#d6b656;" parent="WIyWlLk6GJQsqaUBKTNV-1" vertex="1">
          <mxGeometry x="435" y="511" width="350" height="100" as="geometry" />
        </mxCell>
        <mxCell id="Z0-859JoU0TvKjbYaFMb-20" value="&lt;font size=&quot;1&quot;&gt;&lt;b style=&quot;font-size: 20px;&quot;&gt;JobExecutionListenerSupport.afterJob&lt;/b&gt;&lt;/font&gt;" style="text;whiteSpace=wrap;html=1;rounded=1;" parent="WIyWlLk6GJQsqaUBKTNV-1" vertex="1">
          <mxGeometry x="435" y="469" width="373" height="50" as="geometry" />
        </mxCell>
        <mxCell id="Z0-859JoU0TvKjbYaFMb-21" value="&lt;font style=&quot;font-size: 16px;&quot;&gt;CnavTransfertReader :&lt;/font&gt; &lt;div&gt;&lt;br&gt;&lt;/div&gt;&lt;font style=&quot;font-size: 14px;&quot;&gt;consulte la base, retourne un DeclarationDto&lt;/font&gt;" style="rounded=1;whiteSpace=wrap;html=1;fontSize=12;glass=0;strokeWidth=1;shadow=0;fillColor=#dae8fc;strokeColor=#6c8ebf;" parent="WIyWlLk6GJQsqaUBKTNV-1" vertex="1">
          <mxGeometry x="48" y="180" width="231" height="99" as="geometry" />
        </mxCell>
        <mxCell id="Z0-859JoU0TvKjbYaFMb-22" value="&lt;font style=&quot;font-size: 16px;&quot;&gt;CnavTransfertProcessor :&lt;/font&gt; &lt;div&gt;&lt;br&gt;&lt;/div&gt;&lt;font style=&quot;font-size: 14px;&quot;&gt;consulte la base, prend un DeclarationDto &lt;br&gt;et retourne un CnavTransfertCsvDto &lt;br&gt;&lt;/font&gt;" style="rounded=1;whiteSpace=wrap;html=1;fontSize=12;glass=0;strokeWidth=1;shadow=0;fillColor=#dae8fc;strokeColor=#6c8ebf;" parent="WIyWlLk6GJQsqaUBKTNV-1" vertex="1">
          <mxGeometry x="367" y="184" width="270" height="100" as="geometry" />
        </mxCell>
        <mxCell id="Z0-859JoU0TvKjbYaFMb-25" value="" style="endArrow=none;html=1;rounded=1;" parent="WIyWlLk6GJQsqaUBKTNV-1" edge="1">
          <mxGeometry width="50" height="50" relative="1" as="geometry">
            <mxPoint x="1006" y="409" as="sourcePoint" />
            <mxPoint x="1006" y="33" as="targetPoint" />
          </mxGeometry>
        </mxCell>
        <mxCell id="Z0-859JoU0TvKjbYaFMb-28" value="&lt;font size=&quot;1&quot;&gt;&lt;b style=&quot;font-size: 20px;&quot;&gt;Step CnavTransfert&lt;/b&gt;&lt;/font&gt;" style="text;html=1;align=center;verticalAlign=middle;whiteSpace=wrap;rounded=1;" parent="WIyWlLk6GJQsqaUBKTNV-1" vertex="1">
          <mxGeometry x="800" y="-12" width="195" height="50" as="geometry" />
        </mxCell>
        <mxCell id="Z0-859JoU0TvKjbYaFMb-39" value="&lt;font style=&quot;font-size: 16px;&quot;&gt;CnavTransfertDbWriter :&lt;/font&gt; &lt;div&gt;&lt;br&gt;&lt;/div&gt;&lt;font style=&quot;font-size: 14px;&quot;&gt;écrit&amp;nbsp; dans les tables &lt;b&gt;element&lt;/b&gt;, à partir d&#39;une List&amp;lt;FC15PItem&amp;gt;&lt;/font&gt;" style="rounded=1;whiteSpace=wrap;html=1;fontSize=12;glass=0;strokeWidth=1;shadow=0;fillColor=#dae8fc;strokeColor=#6c8ebf;" parent="WIyWlLk6GJQsqaUBKTNV-1" vertex="1">
          <mxGeometry x="692" y="74" width="270" height="100" as="geometry" />
        </mxCell>
        <mxCell id="Z0-859JoU0TvKjbYaFMb-45" value="" style="edgeStyle=orthogonalEdgeStyle;rounded=1;html=1;jettySize=auto;orthogonalLoop=1;fontSize=11;endArrow=block;endFill=0;endSize=8;strokeWidth=1;shadow=0;labelBackgroundColor=none;exitX=1;exitY=0.5;exitDx=0;exitDy=0;" parent="WIyWlLk6GJQsqaUBKTNV-1" source="Z0-859JoU0TvKjbYaFMb-21" edge="1">
          <mxGeometry y="10" relative="1" as="geometry">
            <mxPoint as="offset" />
            <mxPoint x="294" y="229" as="sourcePoint" />
            <mxPoint x="367" y="229.00000000000006" as="targetPoint" />
          </mxGeometry>
        </mxCell>
        <mxCell id="Z0-859JoU0TvKjbYaFMb-64" value="" style="edgeStyle=orthogonalEdgeStyle;rounded=1;html=1;jettySize=auto;orthogonalLoop=1;fontSize=11;endArrow=block;endFill=0;endSize=8;strokeWidth=1;shadow=0;labelBackgroundColor=none;" parent="WIyWlLk6GJQsqaUBKTNV-1" edge="1">
          <mxGeometry y="10" relative="1" as="geometry">
            <mxPoint as="offset" />
            <mxPoint x="1040" y="359" as="sourcePoint" />
            <mxPoint x="1040" y="440" as="targetPoint" />
          </mxGeometry>
        </mxCell>
        <mxCell id="Z0-859JoU0TvKjbYaFMb-65" value="" style="edgeStyle=orthogonalEdgeStyle;rounded=1;html=1;jettySize=auto;orthogonalLoop=1;fontSize=11;endArrow=block;endFill=0;endSize=8;strokeWidth=1;shadow=0;labelBackgroundColor=none;" parent="WIyWlLk6GJQsqaUBKTNV-1" edge="1">
          <mxGeometry y="10" relative="1" as="geometry">
            <mxPoint as="offset" />
            <mxPoint x="831" y="235" as="sourcePoint" />
            <mxPoint x="831" y="269" as="targetPoint" />
            <Array as="points">
              <mxPoint x="831" y="266" />
              <mxPoint x="831" y="266" />
            </Array>
          </mxGeometry>
        </mxCell>
        <mxCell id="Z0-859JoU0TvKjbYaFMb-68" value="" style="edgeStyle=orthogonalEdgeStyle;rounded=1;html=1;jettySize=auto;orthogonalLoop=1;fontSize=11;endArrow=block;endFill=0;endSize=8;strokeWidth=1;shadow=0;labelBackgroundColor=none;" parent="WIyWlLk6GJQsqaUBKTNV-1" edge="1">
          <mxGeometry y="10" relative="1" as="geometry">
            <mxPoint as="offset" />
            <mxPoint x="1060" y="790" as="sourcePoint" />
            <mxPoint x="970" y="790" as="targetPoint" />
          </mxGeometry>
        </mxCell>
        <mxCell id="Z0-859JoU0TvKjbYaFMb-70" value="" style="edgeStyle=orthogonalEdgeStyle;rounded=1;html=1;jettySize=auto;orthogonalLoop=1;fontSize=11;endArrow=block;endFill=0;endSize=8;strokeWidth=1;shadow=0;labelBackgroundColor=none;" parent="WIyWlLk6GJQsqaUBKTNV-1" edge="1">
          <mxGeometry y="10" relative="1" as="geometry">
            <mxPoint as="offset" />
            <mxPoint x="1040" y="440" as="sourcePoint" />
            <mxPoint x="480" y="440" as="targetPoint" />
          </mxGeometry>
        </mxCell>
        <mxCell id="Z0-859JoU0TvKjbYaFMb-71" value="" style="edgeStyle=orthogonalEdgeStyle;rounded=1;html=1;jettySize=auto;orthogonalLoop=1;fontSize=11;endArrow=block;endFill=0;endSize=8;strokeWidth=1;shadow=0;labelBackgroundColor=none;" parent="WIyWlLk6GJQsqaUBKTNV-1" edge="1">
          <mxGeometry y="10" relative="1" as="geometry">
            <mxPoint as="offset" />
            <mxPoint x="490" y="440" as="sourcePoint" />
            <mxPoint y="440" as="targetPoint" />
          </mxGeometry>
        </mxCell>
        <mxCell id="Z0-859JoU0TvKjbYaFMb-73" value="" style="edgeStyle=orthogonalEdgeStyle;rounded=1;html=1;jettySize=auto;orthogonalLoop=1;fontSize=11;endArrow=block;endFill=0;endSize=8;strokeWidth=1;shadow=0;labelBackgroundColor=none;" parent="WIyWlLk6GJQsqaUBKTNV-1" edge="1">
          <mxGeometry y="10" relative="1" as="geometry">
            <mxPoint as="offset" />
            <mxPoint x="-1" y="440" as="sourcePoint" />
            <mxPoint x="-1" y="560" as="targetPoint" />
          </mxGeometry>
        </mxCell>
        <mxCell id="Z0-859JoU0TvKjbYaFMb-74" value="" style="edgeStyle=orthogonalEdgeStyle;rounded=1;html=1;jettySize=auto;orthogonalLoop=1;fontSize=11;endArrow=block;endFill=0;endSize=8;strokeWidth=1;shadow=0;labelBackgroundColor=none;" parent="WIyWlLk6GJQsqaUBKTNV-1" edge="1">
          <mxGeometry y="10" relative="1" as="geometry">
            <mxPoint as="offset" />
            <mxPoint y="559.33" as="sourcePoint" />
            <mxPoint x="50" y="559.33" as="targetPoint" />
          </mxGeometry>
        </mxCell>
        <mxCell id="Z0-859JoU0TvKjbYaFMb-75" value="" style="edgeStyle=orthogonalEdgeStyle;rounded=1;html=1;jettySize=auto;orthogonalLoop=1;fontSize=11;endArrow=block;endFill=0;endSize=8;strokeWidth=1;shadow=0;labelBackgroundColor=none;" parent="WIyWlLk6GJQsqaUBKTNV-1" edge="1">
          <mxGeometry y="10" relative="1" as="geometry">
            <mxPoint as="offset" />
            <mxPoint x="720" y="810" as="sourcePoint" />
            <mxPoint x="770" y="810" as="targetPoint" />
          </mxGeometry>
        </mxCell>
        <mxCell id="Z0-859JoU0TvKjbYaFMb-23" value="&lt;font style=&quot;font-size: 16px;&quot;&gt;CnavTransfertFileWriter :&lt;/font&gt; &lt;div&gt;&lt;br&gt;&lt;/div&gt;&lt;font style=&quot;font-size: 14px;&quot;&gt;écrit&amp;nbsp; dans un fichier de sortie,&amp;nbsp; à partir d&#39;une List&amp;lt;FC15PItem&amp;gt;, une ligne par&lt;br&gt;FC15PItem&lt;br&gt;&lt;/font&gt;" style="rounded=1;whiteSpace=wrap;html=1;fontSize=12;glass=0;strokeWidth=1;shadow=0;fillColor=#dae8fc;strokeColor=#6c8ebf;" parent="WIyWlLk6GJQsqaUBKTNV-1" vertex="1">
          <mxGeometry x="692" y="219" width="270" height="127" as="geometry" />
        </mxCell>
        <mxCell id="JGg64m_Kd8brvpKtqs0t-1" value="&lt;font style=&quot;font-size: 16px;&quot;&gt;CnavCsvCallBackWriter:&lt;/font&gt; &lt;div&gt;&lt;br&gt;&lt;/div&gt;met un header &amp;amp; footer &lt;br&gt;dans le fichier de sortie " style="rounded=1;whiteSpace=wrap;html=1;fontSize=12;glass=0;strokeWidth=1;shadow=0;fillColor=orange;strokeColor=#82b366;" parent="WIyWlLk6GJQsqaUBKTNV-1" vertex="1">
          <mxGeometry x="748" y="326" width="188" height="72" as="geometry" />
        </mxCell>
        <mxCell id="JGg64m_Kd8brvpKtqs0t-4" value="" style="edgeStyle=orthogonalEdgeStyle;rounded=1;html=1;jettySize=auto;orthogonalLoop=1;fontSize=11;endArrow=block;endFill=0;endSize=8;strokeWidth=1;shadow=0;labelBackgroundColor=none;" parent="WIyWlLk6GJQsqaUBKTNV-1" edge="1">
          <mxGeometry y="10" relative="1" as="geometry">
            <mxPoint as="offset" />
            <mxPoint x="630" y="187.5" as="sourcePoint" />
            <mxPoint x="689" y="126" as="targetPoint" />
            <Array as="points">
              <mxPoint x="630" y="160" />
              <mxPoint x="630" y="160" />
            </Array>
          </mxGeometry>
        </mxCell>
        <mxCell id="JGg64m_Kd8brvpKtqs0t-5" value="" style="endArrow=none;html=1;rounded=0;" parent="WIyWlLk6GJQsqaUBKTNV-1" edge="1">
          <mxGeometry width="50" height="50" relative="1" as="geometry">
            <mxPoint x="15" y="33" as="sourcePoint" />
            <mxPoint x="1006" y="33" as="targetPoint" />
          </mxGeometry>
        </mxCell>
        <mxCell id="LNk79kRE9k_1kjEUgrZI-0" value="" style="endArrow=none;html=1;rounded=0;" parent="WIyWlLk6GJQsqaUBKTNV-1" edge="1">
          <mxGeometry width="50" height="50" relative="1" as="geometry">
            <mxPoint x="14" y="408" as="sourcePoint" />
            <mxPoint x="1005" y="408" as="targetPoint" />
          </mxGeometry>
        </mxCell>
        <mxCell id="LNk79kRE9k_1kjEUgrZI-1" value="" style="endArrow=none;html=1;rounded=1;" parent="WIyWlLk6GJQsqaUBKTNV-1" edge="1">
          <mxGeometry width="50" height="50" relative="1" as="geometry">
            <mxPoint x="15" y="408" as="sourcePoint" />
            <mxPoint x="15" y="33" as="targetPoint" />
          </mxGeometry>
        </mxCell>
        <mxCell id="LNk79kRE9k_1kjEUgrZI-2" value="" style="edgeStyle=orthogonalEdgeStyle;rounded=1;html=1;jettySize=auto;orthogonalLoop=1;fontSize=11;endArrow=block;endFill=0;endSize=8;strokeWidth=1;shadow=0;labelBackgroundColor=none;entryX=0.5;entryY=0;entryDx=0;entryDy=0;" parent="WIyWlLk6GJQsqaUBKTNV-1" source="Z0-859JoU0TvKjbYaFMb-14" target="Z0-859JoU0TvKjbYaFMb-21" edge="1">
          <mxGeometry y="10" relative="1" as="geometry">
            <mxPoint as="offset" />
            <mxPoint x="162.82999999999993" y="-70" as="sourcePoint" />
            <mxPoint x="162.82999999999993" y="50" as="targetPoint" />
          </mxGeometry>
        </mxCell>
        <mxCell id="LNk79kRE9k_1kjEUgrZI-3" value="" style="edgeStyle=orthogonalEdgeStyle;rounded=1;html=1;jettySize=auto;orthogonalLoop=1;fontSize=11;endArrow=block;endFill=0;endSize=8;strokeWidth=1;shadow=0;labelBackgroundColor=none;entryX=0.5;entryY=0;entryDx=0;entryDy=0;" parent="WIyWlLk6GJQsqaUBKTNV-1" target="Z0-859JoU0TvKjbYaFMb-14" edge="1">
          <mxGeometry y="10" relative="1" as="geometry">
            <mxPoint as="offset" />
            <mxPoint x="162.82999999999993" y="-70" as="sourcePoint" />
            <mxPoint x="164" y="180" as="targetPoint" />
          </mxGeometry>
        </mxCell>
        <mxCell id="Z0-859JoU0TvKjbYaFMb-14" value="&lt;font style=&quot;font-size: 16px;&quot;&gt;ValidateJobParametersTasklet :&lt;/font&gt; &lt;div&gt;&lt;br&gt;&lt;/div&gt;Initialiser anneeRevenus par défaut si nécessaire&lt;br&gt;Vérifier que anneeRevenus &amp;lt; 2021" style="rounded=1;whiteSpace=wrap;html=1;fontSize=12;glass=0;strokeWidth=1;shadow=0;fillColor=#d5e8d4;strokeColor=#82b366;" parent="WIyWlLk6GJQsqaUBKTNV-1" vertex="1">
          <mxGeometry x="21" y="-115" width="270" height="100" as="geometry" />
        </mxCell>
        <mxCell id="hhAkteyHMRF9YndLJ4sJ-0" value="&lt;font style=&quot;font-size: 16px;&quot;&gt;CreationFormulaireTasklet :&lt;/font&gt; &lt;div&gt;&lt;br&gt;&lt;/div&gt;&lt;font style=&quot;font-size: 14px;&quot;&gt;ajoute une ligne dans la table &lt;b&gt;formulaire&lt;/b&gt;,&lt;/font&gt;" style="rounded=1;whiteSpace=wrap;html=1;fontSize=12;glass=0;strokeWidth=1;shadow=0;fillColor=#d5e8d4;strokeColor=#82b366;" parent="WIyWlLk6GJQsqaUBKTNV-1" vertex="1">
          <mxGeometry x="51" y="508" width="324" height="100" as="geometry" />
        </mxCell>
        <mxCell id="hhAkteyHMRF9YndLJ4sJ-2" value="" style="edgeStyle=orthogonalEdgeStyle;rounded=1;html=1;jettySize=auto;orthogonalLoop=1;fontSize=11;endArrow=block;endFill=0;endSize=8;strokeWidth=1;shadow=0;labelBackgroundColor=none;entryX=0.009;entryY=0.39;entryDx=0;entryDy=0;entryPerimeter=0;" parent="WIyWlLk6GJQsqaUBKTNV-1" target="Z0-859JoU0TvKjbYaFMb-19" edge="1">
          <mxGeometry y="10" relative="1" as="geometry">
            <mxPoint as="offset" />
            <mxPoint x="375" y="551" as="sourcePoint" />
            <mxPoint x="425" y="551" as="targetPoint" />
          </mxGeometry>
        </mxCell>
        <mxCell id="hhAkteyHMRF9YndLJ4sJ-3" value="" style="edgeStyle=orthogonalEdgeStyle;rounded=1;html=1;jettySize=auto;orthogonalLoop=1;fontSize=11;endArrow=block;endFill=0;endSize=8;strokeWidth=1;shadow=0;labelBackgroundColor=none;" parent="WIyWlLk6GJQsqaUBKTNV-1" edge="1">
          <mxGeometry y="10" relative="1" as="geometry">
            <mxPoint as="offset" />
            <mxPoint x="823" y="174" as="sourcePoint" />
            <mxPoint x="823" y="218" as="targetPoint" />
          </mxGeometry>
        </mxCell>
        <mxCell id="hhAkteyHMRF9YndLJ4sJ-4" value="&lt;font size=&quot;1&quot;&gt;&lt;b style=&quot;font-size: 20px;&quot;&gt;Tasklet Création de Formulaire&lt;br&gt;&lt;/b&gt;&lt;/font&gt;" style="text;html=1;align=center;verticalAlign=middle;whiteSpace=wrap;rounded=1;" parent="WIyWlLk6GJQsqaUBKTNV-1" vertex="1">
          <mxGeometry x="51" y="460" width="303" height="46" as="geometry" />
        </mxCell>
        <mxCell id="hhAkteyHMRF9YndLJ4sJ-6" value="" style="edgeStyle=orthogonalEdgeStyle;rounded=1;html=1;jettySize=auto;orthogonalLoop=1;fontSize=11;endArrow=block;endFill=0;endSize=8;strokeWidth=1;shadow=0;labelBackgroundColor=none;exitX=1;exitY=0.5;exitDx=0;exitDy=0;" parent="WIyWlLk6GJQsqaUBKTNV-1" edge="1">
          <mxGeometry y="10" relative="1" as="geometry">
            <mxPoint as="offset" />
            <mxPoint x="936" y="365" as="sourcePoint" />
            <mxPoint x="1041" y="364" as="targetPoint" />
          </mxGeometry>
        </mxCell>
        <mxCell id="BBlxG4BEJUb8OcIbpDqR-0" value="" style="endArrow=none;html=1;rounded=0;" parent="WIyWlLk6GJQsqaUBKTNV-1" edge="1">
          <mxGeometry width="50" height="50" relative="1" as="geometry">
            <mxPoint x="-52" y="843" as="sourcePoint" />
            <mxPoint x="1104" y="843" as="targetPoint" />
          </mxGeometry>
        </mxCell>
        <mxCell id="0iMnUcxqCF86Wchd9Drz-11" value="&lt;div&gt;&lt;font style=&quot;font-size: 16px;&quot;&gt;EmissionPamBatchGetInfoTasklet :&lt;/font&gt;&lt;/div&gt; &lt;div&gt;&lt;br&gt;&lt;/div&gt;&lt;div&gt;&lt;font style=&quot;font-size: 14px;&quot;&gt;consulte &lt;/font&gt;&lt;b&gt;&lt;span style=&quot;font-size:10.0pt;mso-bidi-font-size:&lt;br/&gt;11.0pt;line-height:115%;font-family:&amp;quot;Arial&amp;quot;,sans-serif;mso-fareast-font-family:&lt;br/&gt;Calibri;mso-bidi-font-family:Calibri;mso-ansi-language:FR;mso-fareast-language:&lt;br/&gt;EN-US;mso-bidi-language:AR-SA&quot;&gt;campagne&lt;/span&gt;&lt;/b&gt;&lt;span style=&quot;font-size:10.0pt;mso-bidi-font-size:11.0pt;line-height:115%;font-family:&lt;br/&gt;&amp;quot;Arial&amp;quot;,sans-serif;mso-fareast-font-family:Calibri;mso-bidi-font-family:Calibri;&lt;br/&gt;mso-ansi-language:FR;mso-fareast-language:EN-US;mso-bidi-language:AR-SA&quot;&gt; pour obtenir la campagne en cours, consulte &lt;b&gt;parametreTraitement&lt;/b&gt; pour déterminer si l&#39;émission est initiale. Stocke ces informations &lt;br&gt;&lt;/span&gt;&lt;/div&gt;&lt;div&gt;&lt;span style=&quot;font-size:10.0pt;mso-bidi-font-size:11.0pt;line-height:115%;font-family:&lt;br/&gt;&amp;quot;Arial&amp;quot;,sans-serif;mso-fareast-font-family:Calibri;mso-bidi-font-family:Calibri;&lt;br/&gt;mso-ansi-language:FR;mso-fareast-language:EN-US;mso-bidi-language:AR-SA&quot;&gt;&amp;nbsp;dans le jobInfo&lt;br&gt;&lt;br&gt;&lt;/span&gt;&lt;/div&gt;" style="rounded=1;whiteSpace=wrap;html=1;fontSize=12;glass=0;strokeWidth=1;shadow=0;fillColor=#d5e8d4;strokeColor=#82b366;" parent="WIyWlLk6GJQsqaUBKTNV-1" vertex="1">
          <mxGeometry x="-397" y="947" width="370" height="116" as="geometry" />
        </mxCell>
        <mxCell id="0iMnUcxqCF86Wchd9Drz-12" value="&lt;div&gt;&lt;font style=&quot;font-size: 16px;&quot;&gt;EmissionPamFichierAppelReader :&lt;/font&gt;&lt;/div&gt; &lt;div&gt;&lt;br&gt;&lt;/div&gt;&lt;div&gt;&lt;font style=&quot;font-size: 14px;&quot;&gt;consulte les tables &lt;b&gt;declaration, declarant, declarant_ga, selection, campagne, complement_declarant, &lt;br&gt;activite_ga&lt;/b&gt;. Produit un &lt;/font&gt;&lt;font style=&quot;font-size: 14px;&quot;&gt;EmissionAppelDeclarantRoot&lt;/font&gt;&lt;/div&gt;" style="rounded=1;whiteSpace=wrap;html=1;fontSize=12;glass=0;strokeWidth=1;shadow=0;fillColor=#dae8fc;strokeColor=#82b366;" parent="WIyWlLk6GJQsqaUBKTNV-1" vertex="1">
          <mxGeometry x="-397" y="1103" width="374" height="101" as="geometry" />
        </mxCell>
        <mxCell id="0iMnUcxqCF86Wchd9Drz-13" value="&lt;font style=&quot;font-size: 16px;&quot;&gt;EmissionPamFichierAppelProcessor :&lt;/font&gt; &lt;div&gt;&lt;br&gt;&lt;/div&gt;&lt;div&gt;&lt;font style=&quot;font-size: 14px;&quot;&gt;Consulte les tables&lt;b&gt; parametreTraitement, evenement, declarant, selection&lt;/b&gt;.&lt;/font&gt;&lt;/div&gt;&lt;div&gt;&lt;font style=&quot;font-size: 14px;&quot;&gt;Prend un EmissionAppelDeclarantRoot, retourne un EmissionAppelDeclarant&lt;br&gt;&lt;/font&gt;&lt;/div&gt;" style="rounded=1;whiteSpace=wrap;html=1;fontSize=12;glass=0;strokeWidth=1;shadow=0;fillColor=#dae8fc;strokeColor=#82b366;" parent="WIyWlLk6GJQsqaUBKTNV-1" vertex="1">
          <mxGeometry x="-395" y="1252" width="370" height="100" as="geometry" />
        </mxCell>
        <mxCell id="0iMnUcxqCF86Wchd9Drz-14" value="&lt;font style=&quot;font-size: 16px;&quot;&gt;EmissionFichierAppelDbWriter :&lt;/font&gt; &lt;div&gt;&lt;br&gt;&lt;/div&gt;&lt;div&gt;&lt;font style=&quot;font-size: 14px;&quot;&gt;à partir d&#39;une List&amp;lt;EmissionAppelDeclarant&amp;gt;, ajoute aux tables &lt;b&gt;selection&lt;/b&gt; et &lt;b&gt;evenementSelection&lt;/b&gt; une ligne par &lt;/font&gt;&lt;font style=&quot;font-size: 14px;&quot;&gt;EmissionAppelDeclarant&lt;/font&gt;&lt;/div&gt;" style="rounded=1;whiteSpace=wrap;html=1;fontSize=12;glass=0;strokeWidth=1;shadow=0;fillColor=#dae8fc;strokeColor=#82b366;" parent="WIyWlLk6GJQsqaUBKTNV-1" vertex="1">
          <mxGeometry x="-393" y="1395" width="370" height="100" as="geometry" />
        </mxCell>
        <mxCell id="0iMnUcxqCF86Wchd9Drz-15" value="&lt;font style=&quot;font-size: 16px;&quot;&gt;EmissionFichierAppelFileWriter :&lt;/font&gt; &lt;div&gt;&lt;br&gt;&lt;/div&gt;&lt;div&gt;&lt;font style=&quot;font-size: 14px;&quot;&gt;à partir d&#39;une List&amp;lt;EmissionAppelDeclarant&amp;gt;, &lt;br&gt;&lt;/font&gt;&lt;/div&gt;&lt;div&gt;&lt;font style=&quot;font-size: 14px;&quot;&gt;créé le fichier XML d&#39;appel&lt;br&gt;&lt;/font&gt;&lt;/div&gt;" style="rounded=1;whiteSpace=wrap;html=1;fontSize=12;glass=0;strokeWidth=1;shadow=0;fillColor=#dae8fc;strokeColor=#82b366;" parent="WIyWlLk6GJQsqaUBKTNV-1" vertex="1">
          <mxGeometry x="-390" y="1546" width="365" height="100" as="geometry" />
        </mxCell>
        <mxCell id="0iMnUcxqCF86Wchd9Drz-16" value="&lt;font style=&quot;font-size: 16px;&quot;&gt;AppelStepListener.afterStep :&lt;/font&gt; &lt;div&gt;&lt;br&gt;&lt;/div&gt;&lt;div&gt;&lt;font style=&quot;font-size: 14px;&quot;&gt;stocke le nombre de déclarants lus dans le jobInfo&lt;br&gt;&lt;/font&gt;&lt;/div&gt;" style="rounded=1;whiteSpace=wrap;html=1;fontSize=12;glass=0;strokeWidth=1;shadow=0;fillColor=#fff2cc;strokeColor=#82b366;" parent="WIyWlLk6GJQsqaUBKTNV-1" vertex="1">
          <mxGeometry x="-386" y="1711" width="364" height="100" as="geometry" />
        </mxCell>
        <mxCell id="0iMnUcxqCF86Wchd9Drz-18" value="" style="endArrow=none;html=1;rounded=0;" parent="WIyWlLk6GJQsqaUBKTNV-1" edge="1">
          <mxGeometry width="50" height="50" relative="1" as="geometry">
            <mxPoint x="-450" y="1082" as="sourcePoint" />
            <mxPoint x="21" y="1082" as="targetPoint" />
          </mxGeometry>
        </mxCell>
        <mxCell id="0iMnUcxqCF86Wchd9Drz-21" value="" style="endArrow=none;html=1;rounded=0;" parent="WIyWlLk6GJQsqaUBKTNV-1" edge="1">
          <mxGeometry width="50" height="50" relative="1" as="geometry">
            <mxPoint x="-919" y="1707" as="sourcePoint" />
            <mxPoint x="-919" y="1800" as="targetPoint" />
          </mxGeometry>
        </mxCell>
        <mxCell id="0iMnUcxqCF86Wchd9Drz-53" value="&lt;font style=&quot;font-size: 24px;&quot;&gt;FAILED&lt;/font&gt;" style="text;html=1;align=center;verticalAlign=middle;whiteSpace=wrap;rounded=0;" parent="WIyWlLk6GJQsqaUBKTNV-1" vertex="1">
          <mxGeometry x="-912" y="1364" width="130" height="60" as="geometry" />
        </mxCell>
        <mxCell id="rnLXUdkvbqKVa6h8ZcLA-0" value="&lt;font style=&quot;font-size: 16px;&quot;&gt;EmissionFichierAppelFinalizeTasklet :&lt;/font&gt; &lt;div&gt;&lt;br&gt;&lt;/div&gt;&lt;div&gt;&lt;font style=&quot;font-size: 14px;&quot;&gt;créé une fichier d&#39;appel si c&#39;est nécéssaire&lt;br&gt;&lt;/font&gt;&lt;/div&gt;&lt;div&gt;&lt;font style=&quot;font-size: 14px;&quot;&gt;stocke le chemin dans jobInfo&lt;br&gt;&lt;/font&gt;&lt;/div&gt;" style="rounded=1;whiteSpace=wrap;html=1;fontSize=12;glass=0;strokeWidth=1;shadow=0;fillColor=#d5e8d4;strokeColor=#82b366;" vertex="1" parent="WIyWlLk6GJQsqaUBKTNV-1">
          <mxGeometry x="118" y="1395" width="338" height="100" as="geometry" />
        </mxCell>
        <mxCell id="rnLXUdkvbqKVa6h8ZcLA-1" value="&lt;font style=&quot;font-size: 16px;&quot;&gt;EmissionFichierAppelFormulaireTasklet :&lt;/font&gt; &lt;div&gt;&lt;br&gt;&lt;/div&gt;&lt;div&gt;&lt;font style=&quot;font-size: 14px;&quot;&gt;&lt;/font&gt;&lt;div&gt;&lt;font style=&quot;font-size: 14px;&quot;&gt;historise la création du fichier de précampagne, en&lt;br&gt;&lt;/font&gt;&lt;/div&gt;&lt;font style=&quot;font-size: 14px;&quot;&gt;ajoutant une ligne dans la table &lt;b&gt;formulaire&lt;/b&gt;&lt;/font&gt;&lt;/div&gt;" style="rounded=1;whiteSpace=wrap;html=1;fontSize=12;glass=0;strokeWidth=1;shadow=0;fillColor=#d5e8d4;strokeColor=#82b366;" vertex="1" parent="WIyWlLk6GJQsqaUBKTNV-1">
          <mxGeometry x="121" y="1252" width="338" height="100" as="geometry" />
        </mxCell>
        <mxCell id="rnLXUdkvbqKVa6h8ZcLA-2" value="&lt;div&gt;&lt;font style=&quot;font-size: 16px;&quot;&gt;EmissionPamPrecampagneGenererFichierTasklet :&lt;/font&gt;&lt;/div&gt; &lt;div&gt;&lt;br&gt;&lt;/div&gt;&lt;div&gt;&lt;font style=&quot;font-size: 14px;&quot;&gt;si l&#39;émission est initiale, consulte &lt;/font&gt;&lt;b&gt;&lt;span style=&quot;font-size:10.0pt;mso-bidi-font-size:&lt;br/&gt;11.0pt;line-height:115%;font-family:&amp;quot;Arial&amp;quot;,sans-serif;mso-fareast-font-family:&lt;br/&gt;Calibri;mso-bidi-font-family:Calibri;mso-ansi-language:FR;mso-fareast-language:&lt;br/&gt;EN-US;mso-bidi-language:AR-SA&quot;&gt;declarantGaPam &lt;/span&gt;&lt;/b&gt;&lt;span style=&quot;font-size:10.0pt;mso-bidi-font-size:11.0pt;line-height:115%;font-family:&lt;br/&gt;&amp;quot;Arial&amp;quot;,sans-serif;mso-fareast-font-family:Calibri;mso-bidi-font-family:Calibri;&lt;br/&gt;mso-ansi-language:FR;mso-fareast-language:EN-US;mso-bidi-language:AR-SA&quot;&gt;pour connaître le nombre de déclarants à traiter et stocker ce nombre dans le jobInfo&lt;br&gt;&lt;br&gt;&lt;/span&gt;&lt;/div&gt;" style="rounded=1;whiteSpace=wrap;html=1;fontSize=12;glass=0;strokeWidth=1;shadow=0;fillColor=#d5e8d4;strokeColor=#82b366;" vertex="1" parent="WIyWlLk6GJQsqaUBKTNV-1">
          <mxGeometry x="557" y="991" width="392" height="101" as="geometry" />
        </mxCell>
        <mxCell id="rnLXUdkvbqKVa6h8ZcLA-3" value="&lt;div&gt;&lt;font style=&quot;font-size: 16px;&quot;&gt;EmissionPamFichierPrecampagneReader :&lt;/font&gt;&lt;/div&gt; &lt;div&gt;&lt;br&gt;&lt;/div&gt;&lt;div&gt;&lt;font style=&quot;font-size: 14px;&quot;&gt;c&lt;/font&gt;&lt;font style=&quot;font-size: 14px;&quot;&gt;consulte les tables &lt;b&gt;declaration, declarant, declarant_ga, selection, campagne, &lt;br&gt;activite_ga&lt;/b&gt;. Produit un PreCampagneDTO&lt;/font&gt;&lt;/div&gt;" style="rounded=1;whiteSpace=wrap;html=1;fontSize=12;glass=0;strokeWidth=1;shadow=0;fillColor=#dae8fc;strokeColor=#82b366;" vertex="1" parent="WIyWlLk6GJQsqaUBKTNV-1">
          <mxGeometry x="588" y="1160" width="338" height="101" as="geometry" />
        </mxCell>
        <mxCell id="rnLXUdkvbqKVa6h8ZcLA-4" value="&lt;font style=&quot;font-size: 16px;&quot;&gt;EmissionPamFichierPrecampagneProcessor :&lt;/font&gt; &lt;div&gt;&lt;br&gt;&lt;/div&gt;&lt;font style=&quot;font-size: 14px;&quot;&gt;prend un PreCampagneDTO, retourne un String&lt;br&gt;&lt;/font&gt;" style="rounded=1;whiteSpace=wrap;html=1;fontSize=12;glass=0;strokeWidth=1;shadow=0;fillColor=#dae8fc;strokeColor=#82b366;" vertex="1" parent="WIyWlLk6GJQsqaUBKTNV-1">
          <mxGeometry x="594" y="1328" width="338" height="100" as="geometry" />
        </mxCell>
        <mxCell id="rnLXUdkvbqKVa6h8ZcLA-5" value="&lt;font style=&quot;font-size: 16px;&quot;&gt;EmissionPamFichierPrecampagneWriter :&lt;/font&gt; &lt;div&gt;&lt;br&gt;&lt;/div&gt;&lt;div&gt;&lt;font style=&quot;font-size: 14px;&quot;&gt;à partir d&#39;une List&amp;lt;String&amp;gt;, remplit le fichier de pré-campagne, en mettant une String par ligne&lt;br&gt;&lt;/font&gt;&lt;/div&gt;" style="rounded=1;whiteSpace=wrap;html=1;fontSize=12;glass=0;strokeWidth=1;shadow=0;fillColor=#dae8fc;strokeColor=#82b366;" vertex="1" parent="WIyWlLk6GJQsqaUBKTNV-1">
          <mxGeometry x="598" y="1477" width="338" height="100" as="geometry" />
        </mxCell>
        <mxCell id="rnLXUdkvbqKVa6h8ZcLA-7" value="&lt;font style=&quot;font-size: 16px;&quot;&gt;PrecampagneStepListener.afterStep :&lt;/font&gt; &lt;div&gt;&lt;br&gt;&lt;/div&gt;&lt;font style=&quot;font-size: 14px;&quot;&gt;&lt;/font&gt;&lt;div&gt;&lt;font style=&quot;font-size: 14px;&quot;&gt;stocke le nombre de déclarants lus&lt;/font&gt;&lt;/div&gt;&lt;div&gt;&lt;font style=&quot;font-size: 14px;&quot;&gt;&amp;nbsp;dans le jobInfo&lt;br&gt;&lt;/font&gt;&lt;/div&gt;" style="rounded=1;whiteSpace=wrap;html=1;fontSize=12;glass=0;strokeWidth=1;shadow=0;fillColor=#fff2cc;strokeColor=#82b366;" vertex="1" parent="WIyWlLk6GJQsqaUBKTNV-1">
          <mxGeometry x="594" y="1642" width="338" height="100" as="geometry" />
        </mxCell>
        <mxCell id="rnLXUdkvbqKVa6h8ZcLA-12" value="&lt;font style=&quot;font-size: 16px;&quot;&gt;EmissionPamPreCampagneLogVolumeTasklet :&lt;/font&gt; &lt;div&gt;&lt;br&gt;&lt;/div&gt;&lt;div&gt;&lt;font style=&quot;font-size: 14px;&quot;&gt;historise la création du fichier de précampagne, en&lt;br&gt;&lt;/font&gt;&lt;/div&gt;&lt;div&gt;&lt;font style=&quot;font-size: 14px;&quot;&gt;ajoutant une ligne dans la table &lt;b&gt;formulaire&lt;br&gt;&lt;/b&gt;&lt;/font&gt;&lt;/div&gt;" style="rounded=1;whiteSpace=wrap;html=1;fontSize=12;glass=0;strokeWidth=1;shadow=0;fillColor=#d5e8d4;strokeColor=#82b366;" vertex="1" parent="WIyWlLk6GJQsqaUBKTNV-1">
          <mxGeometry x="1116" y="1411" width="366" height="100" as="geometry" />
        </mxCell>
        <mxCell id="rnLXUdkvbqKVa6h8ZcLA-13" value="&lt;font style=&quot;font-size: 16px;&quot;&gt;EmissionPamJobListener.afterJob :&lt;/font&gt; &lt;div&gt;&lt;br&gt;&lt;/div&gt;&lt;div&gt;&lt;font style=&quot;font-size: 14px;&quot;&gt;loggue le bilan du batch, envoie un mail&lt;br&gt;&lt;/font&gt;&lt;/div&gt;" style="rounded=1;whiteSpace=wrap;html=1;fontSize=12;glass=0;strokeWidth=1;shadow=0;fillColor=#fff2cc;strokeColor=#82b366;" vertex="1" parent="WIyWlLk6GJQsqaUBKTNV-1">
          <mxGeometry x="1116" y="1274" width="367" height="100" as="geometry" />
        </mxCell>
        <mxCell id="rnLXUdkvbqKVa6h8ZcLA-16" value="" style="endArrow=none;html=1;rounded=0;" edge="1" parent="WIyWlLk6GJQsqaUBKTNV-1">
          <mxGeometry width="50" height="50" relative="1" as="geometry">
            <mxPoint x="-448" y="1084" as="sourcePoint" />
            <mxPoint x="-432" y="1824" as="targetPoint" />
          </mxGeometry>
        </mxCell>
        <mxCell id="rnLXUdkvbqKVa6h8ZcLA-17" value="" style="endArrow=none;html=1;rounded=0;" edge="1" parent="WIyWlLk6GJQsqaUBKTNV-1">
          <mxGeometry width="50" height="50" relative="1" as="geometry">
            <mxPoint x="-899" y="1563" as="sourcePoint" />
            <mxPoint x="-824" y="1563" as="targetPoint" />
          </mxGeometry>
        </mxCell>
      </root>
    </mxGraphModel>
  </diagram>
</mxfile>
